HIERARCHY
ROOT Hips
{
	OFFSET	0.00	0.00	0.00
	CHANNELS 6 Xposition Yposition Zposition Zrotation Xrotation Yrotation
	JOINT LeftUpLeg
	{
		OFFSET	 0.126116	-0.065224	 0.014019
		CHANNELS 3 Zrotation Xrotation Yrotation
		JOINT LeftLeg
		{
			OFFSET	 0.000000	 0.569914	 0.000000
			CHANNELS 3 Zrotation Xrotation Yrotation
			JOINT LeftFoot
			{
				OFFSET	 0.000000	 0.544423	 0.000000
				CHANNELS 3 Zrotation Xrotation Yrotation
				JOINT LeftToeBase
				{
					OFFSET	 0.000000	 0.207117	 0.000000
					CHANNELS 3 Zrotation Xrotation Yrotation
					End Site
					{
						OFFSET	 0.000000	 0.207117	 0.000000
					}
				}
			}
		}
	}
	JOINT RightUpLeg
	{
		OFFSET	-0.124023	-0.065224	 0.008373
		CHANNELS 3 Zrotation Xrotation Yrotation
		JOINT RightLeg
		{
			OFFSET	 0.000000	 0.570047	 0.000000
			CHANNELS 3 Zrotation Xrotation Yrotation
			JOINT RightFoot
			{
				OFFSET	 0.000000	 0.544354	 0.000000
				CHANNELS 3 Zrotation Xrotation Yrotation
				JOINT RightToeBase
				{
					OFFSET	 0.000000	 0.207540	 0.000000
					CHANNELS 3 Zrotation Xrotation Yrotation
					End Site
					{
						OFFSET	 0.000000	 0.207540	 0.000000
					}
				}
			}
		}
	}
	JOINT Spine
	{
		OFFSET	 0.000184	 0.117403	 0.007763
		CHANNELS 3 Zrotation Xrotation Yrotation
		JOINT Spine1
		{
			OFFSET	 0.000000	 0.137269	 0.000000
			CHANNELS 3 Zrotation Xrotation Yrotation
			JOINT Spine2
			{
				OFFSET	 0.000000	 0.156879	 0.000000
				CHANNELS 3 Zrotation Xrotation Yrotation
				JOINT LeftShoulder
				{
					OFFSET	 0.080501	 0.160143	 0.002496
					CHANNELS 3 Zrotation Xrotation Yrotation
					JOINT LeftArm
					{
						OFFSET	 0.000000	 0.164363	 0.000000
						CHANNELS 3 Zrotation Xrotation Yrotation
						JOINT LeftForeArm
						{
							OFFSET	 0.000000	 0.364576	 0.000000
							CHANNELS 3 Zrotation Xrotation Yrotation
							JOINT LeftHand
							{
								OFFSET	 0.000000	 0.360812	 0.000000
								CHANNELS 3 Zrotation Xrotation Yrotation
								JOINT LeftHandIndex1
								{
									OFFSET	 0.000000	 0.086006	 0.000000
									CHANNELS 3 Zrotation Xrotation Yrotation
									JOINT LeftHandIndex2
									{
										OFFSET	 0.000000	 0.047237	 0.000000
										CHANNELS 3 Zrotation Xrotation Yrotation
										JOINT LeftHandIndex3
										{
											OFFSET	-0.004284	 0.038165	 0.000551
											CHANNELS 3 Zrotation Xrotation Yrotation
											End Site
											{
												OFFSET	-0.004284	 0.038165	 0.000551
											}
										}
									}
								}
							}
						}
					}
				}
				JOINT Neck
				{
					OFFSET	 0.000000	 0.176489	 0.000000
					CHANNELS 3 Zrotation Xrotation Yrotation
					JOINT Head
					{
						OFFSET	 0.000000	 0.077941	 0.001747
						CHANNELS 3 Zrotation Xrotation Yrotation
						End Site
						{
							OFFSET	 0.000000	 0.077941	 0.001747
						}
					}
				}
				JOINT RightShoulder
				{
					OFFSET	-0.080363	 0.159706	-0.000306
					CHANNELS 3 Zrotation Xrotation Yrotation
					JOINT RightArm
					{
						OFFSET	 0.000000	 0.164196	 0.000000
						CHANNELS 3 Zrotation Xrotation Yrotation
						JOINT RightForeArm
						{
							OFFSET	 0.000000	 0.365611	 0.000000
							CHANNELS 3 Zrotation Xrotation Yrotation
							JOINT RightHand
							{
								OFFSET	 0.000000	 0.360648	 0.000000
								CHANNELS 3 Zrotation Xrotation Yrotation
								JOINT RightHandIndex1
								{
									OFFSET	 0.000000	 0.069977	 0.000000
									CHANNELS 3 Zrotation Xrotation Yrotation
									JOINT RightHandIndex2
									{
										OFFSET	 0.000000	 0.052305	 0.000000
										CHANNELS 3 Zrotation Xrotation Yrotation
										JOINT RightHandIndex3
										{
											OFFSET	 0.009002	 0.042196	 0.000782
											CHANNELS 3 Zrotation Xrotation Yrotation
											End Site
											{
												OFFSET	 0.009002	 0.042196	 0.000782
											}
										}
									}
								}
							}
						}
					}
				}
			}
		}
	}
}
MOTION
Frames:    13
Frame Time: 0.03333334
 0.437637	 1.276555	 0.430020	 0.603271	-2.486398	-177.250200	-177.607100	 7.706438	-19.617310	 3.734821	-13.776970	 6.044267	 5.288424	 69.785770	-1.576269	 1.292262	 28.425850	-2.713146	 175.847300	 6.319650	 21.156940	-1.027441	-5.329789	 0.980437	-0.823830	 62.031710	-5.680683	-1.288183	 28.361890	 2.710176	 1.082996	 6.250903	 8.108309	-2.396876	-6.187556	 3.820282	 2.695177	 7.334115	-12.555230	-117.485300	-0.787865	 89.954880	 12.607050	-4.009636	-6.421115	 4.935249	-0.400082	 34.652500	 30.381810	-7.852923	 9.639273	-6.580301	 5.266122	 0.000000	 0.000000	 0.000000	 0.000000	 0.000000	 0.000000	 0.000000	 4.813162	 27.173270	 1.698015	-4.224607	-16.907120	-3.153607	 116.328900	-0.451578	-90.565230	-10.152880	 1.576695	 20.791940	-4.843678	 0.116740	-57.147360	 15.132810	 3.631332	 23.577430	 15.208500	 5.323790	 0.000000	 0.000000	 0.000000	 0.000000	 0.000000	 0.000000	 0.000000
 0.440748	 1.285155	 0.493187	 0.664062	-3.053550	-177.218700	-177.552400	 9.485542	-19.585050	 3.903754	-14.373880	 6.159257	 5.729254	 69.206730	-1.735643	 1.292262	 28.425850	-2.713146	 175.906800	 10.000480	 21.087040	-0.960170	-4.982713	 0.878658	-2.487463	 58.823780	-5.351878	-1.288183	 28.361890	 2.710176	 1.066204	 6.549923	 8.558260	-2.584385	-8.268380	 3.736210	 2.961495	 9.878900	-12.499050	-117.805800	-0.885479	 89.911060	 13.126600	-4.345515	-5.457278	 4.883749	-0.383312	 33.805020	 30.375010	-6.218563	 11.207440	-6.580301	 5.266122	 0.000000	 0.000000	 0.000000	 0.000000	 0.000000	 0.000000	 0.000000	 5.037922	 27.874350	 1.511037	-4.261555	-17.018140	-3.097055	 116.834200	-0.590886	-90.516560	-10.871530	 1.442225	 20.657140	-4.788583	 0.132023	-56.538590	 14.345690	 4.502599	 21.036460	 15.208500	 5.323790	 0.000000	 0.000000	 0.000000	 0.000000	 0.000000	 0.000000	 0.000000
 0.444202	 1.297054	 0.557705	 0.645522	-3.897083	-177.156400	-177.970100	 7.438806	-19.427910	 1.775985	-6.654064	 5.925443	 6.186265	 64.198180	-0.944821	 1.292262	 28.425850	-2.713146	 175.846800	 14.101320	 20.996350	-0.944548	-4.901991	 0.655300	-4.274758	 55.738250	-4.977120	-1.288183	 28.361890	 2.710176	 0.834240	 7.072243	 9.436935	-2.805325	-11.097650	 3.521587	 3.271793	 13.305140	-12.183790	-118.486300	-1.091863	 89.816170	 13.897700	-6.615072	-3.235417	 4.834595	-0.354135	 32.107060	 31.329850	-2.286238	 12.054170	-6.580301	 5.266122	 0.000000	 0.000000	 0.000000	 0.000000	 0.000000	 0.000000	 0.000000	 5.529067	 29.361290	 1.099237	-4.332319	-17.492450	-2.923517	 117.907700	-0.885210	-90.409220	-11.973220	-0.518812	 20.864400	-4.738586	 0.165272	-55.407420	 11.346520	 6.759447	 16.270140	 15.208500	 5.323790	 0.000000	 0.000000	 0.000000	 0.000000	 0.000000	 0.000000	 0.000000
 0.446701	 1.312125	 0.594525	 0.518499	-5.246748	-177.036900	-178.335600	 8.823499	-19.122740	 1.306930	-4.907164	 6.199269	 7.557127	 62.352440	-1.352094	 1.292262	 28.425850	-2.713146	 175.642400	 17.291570	 20.931140	-0.928517	-4.819218	 0.202822	-5.992260	 53.967900	-4.345715	-1.288183	 28.361890	 2.710176	 0.174730	 8.071109	 11.158350	-2.834675	-15.604460	 3.036067	 3.568640	 19.038310	-11.257500	-119.918600	-1.522090	 89.608660	 15.069920	-13.853110	 1.416707	 4.789168	-0.303597	 28.914410	 35.284360	 7.230855	 10.156880	-6.580301	 5.266122	 0.000000	 0.000000	 0.000000	 0.000000	 0.000000	 0.000000	 0.000000	 6.629597	 32.480030	 0.161867	-4.471155	-18.632510	-2.483417	 120.167900	-1.497487	-90.165460	-13.782870	-7.505502	 22.149060	-4.709547	 0.234506	-53.620340	 3.399641	 13.979380	 7.282162	 15.208500	 5.323790	 0.000000	 0.000000	 0.000000	 0.000000	 0.000000	 0.000000	 0.000000
 0.448318	 1.327347	 0.604751	 0.330315	-6.777797	-176.893500	-178.712600	 11.068520	-18.671520	 1.294376	-4.860215	 6.607526	 9.320724	 61.505520	-2.218081	 1.292262	 28.425850	-2.713146	 175.367500	 19.340190	 20.902190	-0.916440	-4.756782	-0.353505	-7.462793	 53.442600	-3.594992	-1.288183	 28.361890	 2.710176	-0.815131	 8.851656	 13.160520	-2.643149	-20.278530	 2.261960	 3.665380	 25.488810	-9.573760	-121.790200	-2.075409	 89.321760	 15.845820	-23.663340	 6.592974	 4.711346	-0.247246	 25.340560	 42.651660	 19.397670	 4.467793	-6.580301	 5.266122	 0.000000	 0.000000	 0.000000	 0.000000	 0.000000	 0.000000	 0.000000	 8.224065	 36.523350	-1.226861	-4.634315	-20.180190	-1.781214	 123.122000	-2.280989	-89.811340	-15.273610	-17.694710	 23.597720	-4.651740	 0.321516	-52.190460	-8.227711	 25.443100	-0.564607	 15.208500	 5.323790	 0.000000	 0.000000	 0.000000	 0.000000	 0.000000	 0.000000	 0.000000
 0.450381	 1.346186	 0.618938	 0.116255	-8.653588	-176.660500	-179.057200	 13.793270	-18.150550	 1.279188	-4.803464	 7.702379	 12.240690	 60.453130	-4.397417	 1.292262	 28.425850	-2.713146	 175.005400	 21.768430	 21.090410	-0.901822	-4.681287	-1.393910	-9.862610	 52.791970	-2.087410	-1.288183	 28.361890	 2.710176	-1.599219	 7.807689	 14.838800	-2.788509	-24.759660	 1.208462	 3.477305	 30.475930	-7.221335	-122.935100	-0.244882	 90.251000	 12.440380	-32.119300	 7.305060	 4.579467	-0.192248	 22.758100	 52.879830	 31.070630	-3.349595	-6.580301	 5.266122	 0.000000	 0.000000	 0.000000	 0.000000	 0.000000	 0.000000	 0.000000	 9.237161	 37.746120	-2.322483	-4.557198	-21.052720	-1.074853	 124.958600	-0.843892	-90.598510	-12.283460	-26.705450	 24.359840	-4.522207	 0.400291	-49.626300	-24.123550	 36.243140	-3.287512	 15.208500	 5.323790	 0.000000	 0.000000	 0.000000	 0.000000	 0.000000	 0.000000	 0.000000
 0.452658	 1.363885	 0.629502	 0.026329	-10.429910	-176.358600	-179.182000	 16.171370	-17.648160	 1.266609	-4.756436	 9.015124	 15.188940	 59.600310	-6.838214	 1.292262	 28.425850	-2.713146	 174.758000	 23.800010	 21.348140	-0.889533	-4.617713	-2.427515	-12.311970	 52.388990	-0.504161	-1.288183	 28.361890	 2.710176	-1.986975	 5.130398	 15.243750	-2.541959	-27.701750	-0.443806	 2.487704	 33.514040	-3.130973	-123.528300	 3.027643	 91.960880	 7.468859	-34.926200	 2.436853	 4.563520	-0.155115	 20.971420	 55.670420	 42.766710	-8.187747	-6.580301	 5.266122	 0.000000	 0.000000	 0.000000	 0.000000	 0.000000	 0.000000	 0.000000	 9.618723	 36.892780	-2.975835	-4.318652	-21.333890	-0.128346	 125.878200	 1.953021	-92.149390	-7.105239	-30.541630	 22.501790	-4.477873	 0.462134	-46.527840	-43.539640	 41.790510	-0.641882	 15.208500	 5.323790	 0.000000	 0.000000	 0.000000	 0.000000	 0.000000	 0.000000	 0.000000
 0.451358	 1.342917	 0.616497	-0.293020	-8.243178	-176.765600	-179.409000	 13.209780	-18.168050	 1.280257	-4.807504	 7.412529	 11.637860	 60.617770	-3.964677	 1.292262	 28.425850	-2.713146	 174.658200	 21.268780	 21.170880	-0.905049	-4.698027	-1.146781	-9.166047	 52.920140	-2.688410	-1.288183	 28.361890	 2.710176	-3.758257	 7.282418	 0.953501	 3.468228	-21.080230	-6.074409	-3.158003	 23.375970	 16.026030	-122.825800	-0.916343	 89.905400	 13.678720	-26.506910	-11.543530	 4.600629	-0.202076	 23.135920	-6.197133	 38.897750	 10.939900	-6.580301	 5.266122	 0.000000	 0.000000	 0.000000	 0.000000	 0.000000	 0.000000	 0.000000	 9.157048	 37.920250	-2.187016	-4.019204	-21.647110	 4.810833	 124.779800	-1.418988	-90.286680	-12.014030	-28.491940	 5.305579	-4.530028	 0.386602	-50.312970	-67.171070	 8.271182	-5.257352	 15.208500	 5.323790	 0.000000	 0.000000	 0.000000	 0.000000	 0.000000	 0.000000	 0.000000
 0.500612	 1.226861	 0.721104	-7.258588	-41.124070	-178.505600	 156.045800	 78.304290	 7.940816	 16.772480	-47.367400	 27.269400	 54.413870	 62.800900	-45.771580	 1.292262	 28.425850	-2.713146	 159.341400	 61.985620	 22.357820	-0.964843	-5.006788	-16.038640	-31.503120	 36.550540	 15.190070	-1.288183	 28.361890	 2.710176	 3.101907	 10.297320	-34.714620	-3.575109	 6.569544	-5.166330	 1.624771	 9.914383	 12.515970	-126.419200	 27.236550	 105.650800	 42.842060	 3.289371	 11.223840	 6.743208	-0.584655	-7.060433	-7.213348	-33.307850	-8.439304	-6.580301	 5.266122	 0.000000	 0.000000	 0.000000	 0.000000	 0.000000	 0.000000	 0.000000	 9.843801	 41.952280	-4.874645	-5.015418	-47.258690	 2.826120	 129.958000	 27.475800	-107.531000	-35.808070	-3.862318	 21.723420	-6.429201	 0.723925	-19.462530	-69.737480	-0.640994	-15.727820	 15.208500	 5.323790	 0.000000	 0.000000	 0.000000	 0.000000	 0.000000	 0.000000	 0.000000
 0.500681	 1.125502	 0.732990	-8.659313	-42.275240	 179.471600	 48.402630	 85.485640	 115.718800	 34.120690	-64.657910	 41.538110	 67.477360	 66.290760	-60.463750	 1.292262	 28.425850	-2.713146	 124.566000	 84.189790	 54.314270	-10.427480	-43.278540	-20.880580	-43.231280	 49.403700	 30.601400	-1.288183	 28.361890	 2.710176	 2.189848	 10.951710	-30.008380	-4.082544	 9.372975	-5.260801	 1.417591	 8.819027	 11.035620	-126.637000	 31.494920	 108.184000	 43.218670	 0.545902	 14.391150	 6.706930	-1.531791	-34.522200	 4.360976	-31.549680	 5.580675	-6.580301	 5.266122	 0.000000	 0.000000	 0.000000	 0.000000	 0.000000	 0.000000	 0.000000	 11.020700	 42.347920	-4.890464	-6.643324	-49.889270	 2.139328	 126.735100	 30.291850	-107.996400	-38.959060	-7.780082	 19.811120	-6.843297	 0.551348	-10.750860	-67.292400	 2.465510	-12.619050	 15.208500	 5.323790	 0.000000	 0.000000	 0.000000	 0.000000	 0.000000	 0.000000	 0.000000
 0.461431	 1.285498	 0.710256	-0.600339	-13.851790	-174.068600	 179.060000	 32.316060	-14.736060	 5.616984	-20.225540	 14.089070	 24.516630	 61.767030	-17.719220	 1.292262	 28.425850	-2.713146	 172.199700	 32.113420	 23.351640	-0.928775	-4.820566	-6.878125	-18.652570	 46.380540	 5.912497	-1.288183	 28.361890	 2.710176	-0.270223	 2.676467	 28.435670	 0.560583	 8.290364	 1.575107	 0.578569	-8.737425	-9.013325	-119.454100	 12.704720	 96.404450	 26.748500	 29.491000	 23.940690	 47.037500	-4.782058	-27.181460	 43.124240	-1.391786	 15.990040	-6.580301	 5.266122	 0.000000	 0.000000	 0.000000	 0.000000	 0.000000	 0.000000	 0.000000	-1.009601	 0.741462	-1.472498	-0.009380	-10.522760	-2.668142	 124.498400	 12.460790	-97.646720	-31.550030	 23.072330	-7.801837	-30.099190	 1.383128	-9.229695	-46.514090	-44.971110	-20.424280	 15.208500	 5.323790	 0.000000	 0.000000	 0.000000	 0.000000	 0.000000	 0.000000	 0.000000
 0.462695	 1.298278	 0.680281	-0.117519	-11.566740	-174.426500	-179.652600	 23.773050	-16.096410	 3.222676	-11.948250	 10.730900	 16.991070	 60.350360	-10.186270	 1.292262	 28.425850	-2.713146	 173.588000	 27.745930	 23.615560	-0.926794	-4.810318	-3.003150	-13.509720	 49.377900	 0.583644	-1.288183	 28.361890	 2.710176	-0.203720	 2.014198	 32.117560	-0.916717	 4.881409	 2.635287	 1.078896	-7.611264	-11.644900	-119.698400	 9.531675	 94.911900	 26.097780	 29.383640	 27.566870	 51.868420	-4.847060	-23.106590	 43.373320	 4.268845	 13.589830	-6.580301	 5.266122	 0.000000	 0.000000	 0.000000	 0.000000	 0.000000	 0.000000	 0.000000	-0.002662	 4.048413	-1.847394	-0.004996	-9.937972	-3.230388	 124.642700	 9.514482	-96.101720	-28.763170	 25.184680	-10.041380	-37.238450	 1.706273	-11.231430	-34.069360	-48.513890	-13.279770	 15.208500	 5.323790	 0.000000	 0.000000	 0.000000	 0.000000	 0.000000	 0.000000	 0.000000
 0.451814	 1.286082	 0.624088	-0.105958	-1.515167	-175.599700	-178.693400	 6.903134	-18.081640	 1.820391	-6.818821	 4.385933	 1.759374	 62.510560	 2.956183	 1.292262	 28.425850	-2.713146	 174.907100	 14.353950	 22.818510	-0.947457	-4.917075	 0.130034	-4.685604	 52.599410	-4.441143	-1.288183	 28.361890	 2.710176	 0.134114	 2.052373	 20.524880	-4.414106	-3.051512	 4.284410	 3.351786	-2.866920	-15.137640	-121.532100	 3.177931	 91.946400	 23.557880	 32.982330	 30.250980	 57.243560	-4.924943	-18.151270	 35.781110	 15.457510	 8.965999	-6.580301	 5.266122	 0.000000	 0.000000	 0.000000	 0.000000	 0.000000	 0.000000	 0.000000	 0.607375	 5.112587	-1.188857	-0.380901	-4.464597	-4.300531	 123.146700	 5.029564	-93.581910	-29.696680	 37.671800	-11.808630	-52.928820	 2.298928	-12.348990	-0.609152	-50.076960	-0.172719	 15.208500	 5.323790	 0.000000	 0.000000	 0.000000	 0.000000	 0.000000	 0.000000	 0.000000
